<svg width="12" height="11" viewBox="0 0 12 11" fill="none" xmlns="http://www.w3.org/2000/svg">
<path d="M11.7396 4.97377C11.9758 4.75741 12.0592 4.43986 11.9573 4.14468C11.8552 3.8495 11.5892 3.63879 11.2624 3.59407L8.35677 3.19726C8.23302 3.18032 8.12609 3.10737 8.07082 3.0019L6.77181 0.527297C6.62596 0.24928 6.32992 0.0765076 6 0.0765076C5.67032 0.0765076 5.37428 0.24928 5.22843 0.527297L3.92918 3.0019C3.87391 3.10737 3.76674 3.18032 3.64299 3.19726L0.737401 3.59429C0.410847 3.63879 0.144845 3.8495 0.0427218 4.14468C-0.0591613 4.43986 0.0242195 4.75741 0.260425 4.97377L2.36272 6.89979C2.45235 6.98199 2.49344 7.10034 2.4723 7.21597L1.9761 9.93584C1.92035 10.2414 2.05131 10.5443 2.31827 10.7268C2.58499 10.9095 2.93221 10.9332 3.22465 10.7884L5.82315 9.50425C5.93392 9.4496 6.06608 9.4496 6.17685 9.50425L8.77559 10.7884C8.90247 10.8512 9.03991 10.8821 9.17664 10.8821C9.35421 10.8821 9.53107 10.83 9.68197 10.7268C9.94893 10.5443 10.0799 10.2414 10.0241 9.93584L9.5277 7.2162C9.50656 7.10034 9.54765 6.98222 9.63727 6.90001L11.7396 4.97377ZM9.05433 7.29253L9.55053 10.0122C9.57552 10.149 9.51905 10.2798 9.39939 10.3616C9.27948 10.4431 9.13026 10.453 8.9993 10.3889L6.40056 9.1045C6.27537 9.04284 6.13745 9.01168 6 9.01168C5.86255 9.01168 5.72487 9.04284 5.59944 9.10473L3.00118 10.3889C2.86974 10.453 2.72052 10.4431 2.60085 10.3616C2.48119 10.2798 2.42496 10.1493 2.44971 10.0122L2.94591 7.29253C2.99373 7.0301 2.90122 6.76225 2.69841 6.5766L0.59587 4.65035C0.489902 4.55324 0.453859 4.41638 0.499754 4.28426C0.545409 4.15191 0.660028 4.06112 0.806364 4.04102L3.71171 3.64421C3.99213 3.60604 4.23459 3.44072 4.35978 3.20177L5.65903 0.727172C5.72439 0.602504 5.85198 0.528201 5.99976 0.528201C6.14778 0.528201 6.27513 0.602504 6.34073 0.727172L7.63998 3.20177C7.76517 3.44072 8.00739 3.60604 8.2878 3.64421L11.1934 4.04102C11.3397 4.06112 11.4544 4.15191 11.5 4.28426C11.5457 4.41638 11.5099 4.55324 11.4039 4.65035L9.30159 6.57637C9.09878 6.76225 9.00627 7.02987 9.05433 7.29253Z" fill="#151515"/>
</svg>
