<svg width="12" height="11" viewBox="0 0 12 11" fill="none" xmlns="http://www.w3.org/2000/svg">
<path d="M11.7396 4.97344C11.9758 4.75709 12.0592 4.43955 11.9573 4.14438C11.8552 3.8492 11.5892 3.63849 11.2624 3.59377L8.35684 3.19697C8.23309 3.18003 8.12617 3.10708 8.0709 3.00161L6.77192 0.527288C6.62606 0.249277 6.33003 0.0765076 6.00012 0.0765076C5.67045 0.0765076 5.37442 0.249277 5.22856 0.527288L3.92934 3.00184C3.87407 3.10731 3.76691 3.18026 3.64316 3.19719L0.737627 3.594C0.411079 3.63849 0.144842 3.84943 0.042721 4.1446C-0.0591601 4.43978 0.024219 4.75731 0.26042 4.97367L2.36268 6.89965C2.4523 6.98186 2.49339 7.1002 2.47225 7.21583L1.9763 9.93542C1.93233 10.1748 1.99913 10.4077 2.16396 10.5913C2.42011 10.8774 2.86728 10.9646 3.22482 10.788L5.82327 9.50383C5.93188 9.45031 6.0686 9.45076 6.17697 9.50383L8.77566 10.788C8.90205 10.8505 9.03685 10.8821 9.17597 10.8821C9.42996 10.8821 9.67072 10.776 9.83628 10.5913C10.0014 10.4077 10.0679 10.1744 10.0239 9.93542L9.52775 7.21583C9.50661 7.09997 9.5477 6.98186 9.63732 6.89965L11.7396 4.97344Z" fill="#151515"/>
</svg>
